<svg width="120" height="116" viewBox="0 0 120 116" fill="none" xmlns="http://www.w3.org/2000/svg">
<path d="M50.4609 25.6255L36.348 11.5501C35.9912 11.1977 35.5094 11 35.0073 11C34.5051 11 34.0233 11.1977 33.6666 11.5501L9.22764 35.9474L3.08852 42.0467C1.11097 44.019 -2.08368e-08 46.694 0 49.4832C2.08368e-08 52.2724 1.11097 54.9474 3.08852 56.9197C5.06606 58.892 7.74818 60 10.5449 60C13.3415 60 16.0236 58.892 18.0012 56.9197L36.3245 38.6217L44.4865 30.4815L49.7083 28.7455C50.0136 28.6409 50.2878 28.4615 50.5056 28.2238C50.7234 27.9861 50.8779 27.6976 50.9549 27.3849C51.0232 27.0737 51.0138 26.7506 50.9277 26.4438C50.8416 26.1371 50.6813 25.8561 50.4609 25.6255ZM42.887 27.0565C42.6088 27.1535 42.3529 27.3051 42.1343 27.5022L33.7606 35.8536C33.2667 36.2289 29.5503 38.5748 23.6228 35.5955C21.0355 34.3053 18.7304 33.8127 16.7545 33.7423L35.0073 15.5381L45.639 26.1416L42.887 27.0565Z" fill="#585858"/>
<path d="M116.687 42H64.2702C61.0555 42 56.6564 42.7169 53.6358 46.0915C51.6917 48.2636 51 50.8635 51 52.5714C50.9999 53.2095 51.2316 53.826 51.6524 54.3072C52.0731 54.7884 52.6545 55.1018 53.2891 55.1895C58.2488 55.875 58.9621 56.1707 58.9621 59.1786V102.786C58.9652 106.289 60.3643 109.649 62.8523 112.126C65.3402 114.604 68.7138 115.997 72.2323 116H104.081C107.599 115.995 110.971 114.601 113.459 112.124C115.946 109.647 117.346 106.289 117.351 102.786V52.5714C117.351 50.4984 118.588 48.0703 119.01 47.3914L119.026 47.3683C119.063 47.3105 119.109 47.2494 119.156 47.1866C119.487 46.7258 120 46.0304 120 45.0475C120.005 43.2867 118.494 42 116.687 42ZM56.9898 50.4373C57.859 48.9722 59.8379 47.2989 64.3365 47.2989H113.176C112.59 48.7508 112.043 50.6339 112.043 52.5714V63.1429H64.2702V59.1786C64.2702 53.0141 60.7287 51.2269 56.9898 50.4373Z" fill="#585858"/>
<circle cx="82.5" cy="28.5" r="3.5" fill="#585858"/>
<circle cx="93" cy="16" r="3" fill="#585858"/>
<circle cx="81.5" cy="2.5" r="2.5" fill="#585858"/>
</svg>
