<svg width="23" height="29" viewBox="0 0 23 29" fill="none" xmlns="http://www.w3.org/2000/svg">
<path d="M21.5629 26.0916H1.44316C1.06201 26.0916 0.696477 26.2448 0.426964 26.5175C0.157451 26.7902 0.00604016 27.1601 0.00604016 27.5458C0.00604016 27.9315 0.157451 28.3014 0.426964 28.5741C0.696477 28.8468 1.06201 29 1.44316 29H21.5629C21.944 29 22.3096 28.8468 22.5791 28.5741C22.8486 28.3014 23 27.9315 23 27.5458C23 27.1601 22.8486 26.7902 22.5791 26.5175C22.3096 26.2448 21.944 26.0916 21.5629 26.0916ZM1.44316 23.1832H1.5725L7.5653 22.6306C8.22178 22.5644 8.83577 22.2718 9.30422 21.8017L22.2383 8.71391C22.7403 8.17727 23.0116 7.46113 22.9928 6.72244C22.9739 5.98375 22.6664 5.28274 22.1377 4.77303L18.2 0.788526C17.6861 0.300055 17.0126 0.0197764 16.3078 0.00100741C15.6029 -0.0177616 14.9159 0.226288 14.3773 0.686732L1.44316 13.7745C0.978635 14.2485 0.689398 14.8698 0.624003 15.5341L0.00604016 21.5981C-0.0133194 21.8111 0.0139937 22.0258 0.0860321 22.2269C0.158071 22.428 0.273061 22.6105 0.422806 22.7615C0.55709 22.8963 0.716347 23.0029 0.891442 23.0753C1.06654 23.1476 1.25403 23.1843 1.44316 23.1832ZM16.2024 2.82441L20.1258 6.79437L17.2515 9.63006L13.4 5.73281L16.2024 2.82441ZM3.41202 15.7813L11.503 7.65235L15.3833 11.5787L7.33537 19.7222L3.024 20.1294L3.41202 15.7813Z" fill="#666666"/>
</svg>
